<svg id="svg" fill="#d8473a" stroke="#d8473a" width="200" height="200" version="1.1" viewBox="144 144 512 512" xmlns="http://www.w3.org/2000/svg">
    <g id="IconSvg_bgCarrier" stroke-width="0"></g>
    <g id="IconSvg_tracerCarrier" stroke-linecap="round" stroke-linejoin="round" stroke="#CCCCCC" stroke-width="0">
      <g xmlns="http://www.w3.org/2000/svg">
  <path d="m436.95 456.43v22.168c0 4.0312 2.6875 6.7188 6.7188 6.7188s6.7188-2.6875 6.7188-6.7188v-26.871c0.67188-0.67188 2.0156-2.0156 2.6875-2.6875h27.543c4.0312 0 6.7188-2.6875 6.7188-6.7188s-2.6875-6.7188-6.7188-6.7188l-23.516 0.003906v-14.777h83.969c4.0312 0 6.7188-2.6875 6.7188-6.7188s-2.6875-6.7188-6.7188-6.7188h-83.969v-14.777h83.969c4.0312 0 6.7188-2.6875 6.7188-6.7188s-2.6875-6.7188-6.7188-6.7188l-83.969 0.003906v-14.777h23.512c4.0312 0 6.7188-2.6875 6.7188-6.7188s-2.6875-6.7188-6.7188-6.7188h-27.543l-4.0312-4.0312v-26.199c0-4.0312-2.6875-6.7188-6.7188-6.7188s-6.7188 2.6875-6.7188 6.7188v22.168h-14.777l0.003907-111.51c0-4.0312-2.6875-6.7188-6.7188-6.7188s-6.7188 2.6875-6.7188 6.7188v110.84h-14.777v-110.84c0-4.0312-2.6875-6.7188-6.7188-6.7188s-6.7188 2.6875-6.7188 6.7188v110.84h-14.777v-22.168c0-4.0312-2.6875-6.7188-6.7188-6.7188s-6.7188 2.6875-6.7188 6.7188v26.199l-4.0312 4.0312h-26.199c-4.0312 0-6.7188 2.6875-6.7188 6.7188s2.6875 6.7188 6.7188 6.7188h22.168v14.777l-82.621-0.003906c-4.0312 0-6.7188 2.6875-6.7188 6.7188s2.6875 6.7188 6.7188 6.7188h82.625v14.777l-82.625-0.003906c-4.0312 0-6.7188 2.6875-6.7188 6.7188s2.6875 6.7188 6.7188 6.7188h82.625v14.777h-22.168c-4.0312 0-6.7188 2.6875-6.7188 6.7188s2.6875 6.7188 6.7188 6.7188h26.199c1.3438 2.0156 3.3594 3.3594 5.375 4.7031v24.855c0 4.0312 2.6875 6.7188 6.7188 6.7188s6.7188-2.6875 6.7188-6.7188v-22.168h14.777v118.9c0 4.0312 2.6875 6.7188 6.7188 6.7188s6.7188-2.6875 6.7188-6.7188l-0.003906-118.23h14.777v118.9c0 4.0312 2.6875 6.7188 6.7188 6.7188s6.7188-2.6875 6.7188-6.7188v-118.9zm-73.223-13.434c-4.0312 0-6.7188-2.6875-6.7188-6.7188l0.003906-73.895c0-4.0312 2.6875-6.7188 6.7188-6.7188l73.219 0.003906c4.0312 0 6.7188 2.6875 6.7188 6.7188v73.219c0 4.0312-2.6875 6.7188-6.7188 6.7188h-73.223z"></path>
  <path d="m581.37 400c0-18.809-8.0625-36.273-21.496-49.039 4.0312-21.496 1.3438-40.305-8.7344-55.754-13.434-20.824-35.602-30.898-49.039-34.93-1.3438-9.4062-5.375-17.465-12.09-24.184-16.793-17.465-43.664-18.137-46.352-18.137h-13.434v37.617c0 7.3906 6.0469 13.434 13.434 13.434 7.3906 0 13.434-6.0469 13.434-13.434v-8.7344c4.7031 1.3438 10.078 4.0312 13.434 7.3906 4.0312 4.0312 5.375 8.7344 5.375 15.449l-0.66797 12.762 11.418 2.0156s28.887 5.375 41.648 25.527c4.7031 7.3906 6.7188 16.121 6.0469 26.871-7.3906-2.6875-15.449-4.0312-23.512-4.0312-7.3906 0-13.434 6.0469-13.434 13.434 0 7.3906 6.0469 13.434 13.434 13.434 24.184 0 43.664 18.137 43.664 40.977 0 12.09-5.375 22.84-14.105 30.23-2.6875 0.67187-4.7031 2.0156-6.0469 4.0312-6.7188 4.0312-14.777 6.7188-23.512 6.7188-7.3906 0-13.434 6.0469-13.434 13.434 0 7.3906 6.0469 13.434 13.434 13.434 8.0625 0 16.121-1.3438 23.512-4.0312 0.67188 10.078-1.3438 18.137-6.0469 25.527-12.762 20.152-40.977 25.527-41.648 25.527l-11.418 2.0156 0.67188 12.09c0 6.7188-1.3438 12.09-4.7031 15.449-3.3594 4.0312-8.7344 6.0469-13.434 7.3906v-8.7344c0-7.3906-6.0469-13.434-13.434-13.434-7.3906 0-13.434 6.0469-13.434 13.434v37.617h13.434c2.6875 0 29.559-0.67188 46.352-18.137 6.0469-6.7188 10.078-14.777 12.09-24.184 13.434-4.0312 35.602-14.105 49.039-34.93 10.078-15.449 12.762-34.258 8.7344-55.082 12.758-12.762 20.82-30.227 20.82-49.035z"></path>
  <path d="m356.34 529.64c-7.3906 0-13.434 6.0469-13.434 13.434v8.7344c-4.7031-1.3438-10.078-4.0312-13.434-7.3906-4.0312-4.0312-5.375-8.7344-5.375-15.449l0.67188-12.09-11.418-2.0156s-28.887-5.375-41.648-25.527c-4.7031-7.3906-6.7188-16.121-6.0469-25.527 7.3906 2.6875 15.449 4.0312 23.512 4.0312 7.3906 0 13.434-6.0469 13.434-13.434 0-7.3906-6.0469-13.434-13.434-13.434-8.7344 0-16.793-2.6875-23.512-6.7188-1.3438-2.0156-3.3594-3.3594-6.0469-4.0312-8.7344-7.3906-14.105-18.137-14.105-30.23 0-22.84 19.48-40.977 43.664-40.977 7.3906 0 13.434-6.0469 13.434-13.434 0-7.3906-6.0469-13.434-13.434-13.434-8.0625 0-16.121 1.3438-23.512 4.0312-0.67188-10.078 1.3438-18.809 6.0469-26.871 12.762-20.152 40.977-25.527 41.648-25.527l11.418-2.0156-0.67188-12.09c0-6.7188 1.3438-12.09 4.7031-15.449 3.3594-4.0312 8.7344-6.0469 13.434-7.3906l-0.003907 8.7344c0 7.3906 6.0469 13.434 13.434 13.434 7.3906 0 13.434-6.0469 13.434-13.434v-37.617h-13.434c-2.6875 0-29.559 0.67188-46.352 18.137-6.0469 6.7188-10.078 14.777-12.09 24.184-13.434 4.0312-35.602 14.105-49.039 34.93-10.078 16.121-12.762 34.93-8.7344 55.754-13.434 12.09-21.496 29.559-21.496 49.039 0 18.809 8.0625 36.273 21.496 48.367-4.0312 20.824-1.3438 39.633 8.7344 55.082 13.434 20.824 35.602 30.898 49.039 34.93 1.3438 9.4062 5.375 17.465 12.09 24.184 16.793 17.465 43.664 18.137 46.352 18.137h13.434v-37.617c0.67578-7.3906-5.3711-13.438-12.758-13.438z"></path>
 </g>

      </g>
     <g id="IconSvg_iconCarrier">
      <g xmlns="http://www.w3.org/2000/svg">
  <path d="m436.95 456.43v22.168c0 4.0312 2.6875 6.7188 6.7188 6.7188s6.7188-2.6875 6.7188-6.7188v-26.871c0.67188-0.67188 2.0156-2.0156 2.6875-2.6875h27.543c4.0312 0 6.7188-2.6875 6.7188-6.7188s-2.6875-6.7188-6.7188-6.7188l-23.516 0.003906v-14.777h83.969c4.0312 0 6.7188-2.6875 6.7188-6.7188s-2.6875-6.7188-6.7188-6.7188h-83.969v-14.777h83.969c4.0312 0 6.7188-2.6875 6.7188-6.7188s-2.6875-6.7188-6.7188-6.7188l-83.969 0.003906v-14.777h23.512c4.0312 0 6.7188-2.6875 6.7188-6.7188s-2.6875-6.7188-6.7188-6.7188h-27.543l-4.0312-4.0312v-26.199c0-4.0312-2.6875-6.7188-6.7188-6.7188s-6.7188 2.6875-6.7188 6.7188v22.168h-14.777l0.003907-111.51c0-4.0312-2.6875-6.7188-6.7188-6.7188s-6.7188 2.6875-6.7188 6.7188v110.84h-14.777v-110.84c0-4.0312-2.6875-6.7188-6.7188-6.7188s-6.7188 2.6875-6.7188 6.7188v110.84h-14.777v-22.168c0-4.0312-2.6875-6.7188-6.7188-6.7188s-6.7188 2.6875-6.7188 6.7188v26.199l-4.0312 4.0312h-26.199c-4.0312 0-6.7188 2.6875-6.7188 6.7188s2.6875 6.7188 6.7188 6.7188h22.168v14.777l-82.621-0.003906c-4.0312 0-6.7188 2.6875-6.7188 6.7188s2.6875 6.7188 6.7188 6.7188h82.625v14.777l-82.625-0.003906c-4.0312 0-6.7188 2.6875-6.7188 6.7188s2.6875 6.7188 6.7188 6.7188h82.625v14.777h-22.168c-4.0312 0-6.7188 2.6875-6.7188 6.7188s2.6875 6.7188 6.7188 6.7188h26.199c1.3438 2.0156 3.3594 3.3594 5.375 4.7031v24.855c0 4.0312 2.6875 6.7188 6.7188 6.7188s6.7188-2.6875 6.7188-6.7188v-22.168h14.777v118.9c0 4.0312 2.6875 6.7188 6.7188 6.7188s6.7188-2.6875 6.7188-6.7188l-0.003906-118.23h14.777v118.9c0 4.0312 2.6875 6.7188 6.7188 6.7188s6.7188-2.6875 6.7188-6.7188v-118.9zm-73.223-13.434c-4.0312 0-6.7188-2.6875-6.7188-6.7188l0.003906-73.895c0-4.0312 2.6875-6.7188 6.7188-6.7188l73.219 0.003906c4.0312 0 6.7188 2.6875 6.7188 6.7188v73.219c0 4.0312-2.6875 6.7188-6.7188 6.7188h-73.223z"></path>
  <path d="m581.37 400c0-18.809-8.0625-36.273-21.496-49.039 4.0312-21.496 1.3438-40.305-8.7344-55.754-13.434-20.824-35.602-30.898-49.039-34.93-1.3438-9.4062-5.375-17.465-12.09-24.184-16.793-17.465-43.664-18.137-46.352-18.137h-13.434v37.617c0 7.3906 6.0469 13.434 13.434 13.434 7.3906 0 13.434-6.0469 13.434-13.434v-8.7344c4.7031 1.3438 10.078 4.0312 13.434 7.3906 4.0312 4.0312 5.375 8.7344 5.375 15.449l-0.66797 12.762 11.418 2.0156s28.887 5.375 41.648 25.527c4.7031 7.3906 6.7188 16.121 6.0469 26.871-7.3906-2.6875-15.449-4.0312-23.512-4.0312-7.3906 0-13.434 6.0469-13.434 13.434 0 7.3906 6.0469 13.434 13.434 13.434 24.184 0 43.664 18.137 43.664 40.977 0 12.09-5.375 22.84-14.105 30.23-2.6875 0.67187-4.7031 2.0156-6.0469 4.0312-6.7188 4.0312-14.777 6.7188-23.512 6.7188-7.3906 0-13.434 6.0469-13.434 13.434 0 7.3906 6.0469 13.434 13.434 13.434 8.0625 0 16.121-1.3438 23.512-4.0312 0.67188 10.078-1.3438 18.137-6.0469 25.527-12.762 20.152-40.977 25.527-41.648 25.527l-11.418 2.0156 0.67188 12.09c0 6.7188-1.3438 12.09-4.7031 15.449-3.3594 4.0312-8.7344 6.0469-13.434 7.3906v-8.7344c0-7.3906-6.0469-13.434-13.434-13.434-7.3906 0-13.434 6.0469-13.434 13.434v37.617h13.434c2.6875 0 29.559-0.67188 46.352-18.137 6.0469-6.7188 10.078-14.777 12.09-24.184 13.434-4.0312 35.602-14.105 49.039-34.93 10.078-15.449 12.762-34.258 8.7344-55.082 12.758-12.762 20.82-30.227 20.82-49.035z"></path>
  <path d="m356.34 529.64c-7.3906 0-13.434 6.0469-13.434 13.434v8.7344c-4.7031-1.3438-10.078-4.0312-13.434-7.3906-4.0312-4.0312-5.375-8.7344-5.375-15.449l0.67188-12.09-11.418-2.0156s-28.887-5.375-41.648-25.527c-4.7031-7.3906-6.7188-16.121-6.0469-25.527 7.3906 2.6875 15.449 4.0312 23.512 4.0312 7.3906 0 13.434-6.0469 13.434-13.434 0-7.3906-6.0469-13.434-13.434-13.434-8.7344 0-16.793-2.6875-23.512-6.7188-1.3438-2.0156-3.3594-3.3594-6.0469-4.0312-8.7344-7.3906-14.105-18.137-14.105-30.23 0-22.84 19.48-40.977 43.664-40.977 7.3906 0 13.434-6.0469 13.434-13.434 0-7.3906-6.0469-13.434-13.434-13.434-8.0625 0-16.121 1.3438-23.512 4.0312-0.67188-10.078 1.3438-18.809 6.0469-26.871 12.762-20.152 40.977-25.527 41.648-25.527l11.418-2.0156-0.67188-12.09c0-6.7188 1.3438-12.09 4.7031-15.449 3.3594-4.0312 8.7344-6.0469 13.434-7.3906l-0.003907 8.7344c0 7.3906 6.0469 13.434 13.434 13.434 7.3906 0 13.434-6.0469 13.434-13.434v-37.617h-13.434c-2.6875 0-29.559 0.67188-46.352 18.137-6.0469 6.7188-10.078 14.777-12.09 24.184-13.434 4.0312-35.602 14.105-49.039 34.93-10.078 16.121-12.762 34.93-8.7344 55.754-13.434 12.09-21.496 29.559-21.496 49.039 0 18.809 8.0625 36.273 21.496 48.367-4.0312 20.824-1.3438 39.633 8.7344 55.082 13.434 20.824 35.602 30.898 49.039 34.93 1.3438 9.4062 5.375 17.465 12.09 24.184 16.793 17.465 43.664 18.137 46.352 18.137h13.434v-37.617c0.67578-7.3906-5.3711-13.438-12.758-13.438z"></path>
 </g>

      </g>
      </svg>