<svg id="svg" fill="#d8473a" stroke="#d8473a" width="200" height="200" version="1.1" viewBox="144 144 512 512" xmlns="http://www.w3.org/2000/svg">
    <g id="IconSvg_bgCarrier" stroke-width="0"></g>
    <g id="IconSvg_tracerCarrier" stroke-linecap="round" stroke-linejoin="round" stroke="#CCCCCC" stroke-width="0">
      <g xmlns="http://www.w3.org/2000/svg">
  <path d="m411.54 398.18c-69.477-31.586-86-102.88-89.578-125.65l171.95 0.25c-2.9727 20.605-15.164 80.559-59.098 111.34-2.9219 2.0156-3.7266 6.2461-1.6133 9.168 1.3086 1.8633 3.3242 2.8203 5.4414 2.8203 1.3086 0 2.6719-0.25 3.8789-1.2109 54.863-38.34 64.137-114.41 65.344-127.16 0.15234-0.80469 0.15234-1.3086 0.15234-1.6133l0.050781-20.102c0-3.7266-2.9219-6.6484-6.6484-6.6484l-186.81-0.30078c-3.7266 0-6.6484 2.9219-6.6484 6.6484l-0.050781 20.102c0 0.40234 0 0.90625 0.15234 1.3086 0.90625 11.035 11.387 103.58 98.043 143.08 75.219 34.16 86.402 91.594 87.965 110.79l-172.61-0.25c2.418-18.488 13.652-69.527 61.062-97.789 3.1758-1.8633 4.2812-5.9961 2.418-9.168-1.9648-3.0742-5.9961-4.1328-9.168-2.2656-64.137 38.34-68.113 111.59-68.266 115.42l-0.050781 21.262c0 3.5781 2.9219 6.6484 6.6484 6.6484l186.81 0.30078c3.7266 0 6.6484-3.0234 6.6484-6.6484l0.050781-20.859c0.14844-5.3906 0.55469-85.547-96.078-129.48zm-90.332-145.7 173.51 0.25 0.10156 6.8008-173.66-0.25zm173.11 289.44-173.51-0.25v-7.5586l173.51 0.25z"></path>
  <path d="m593.76 501.82-46.25-4.2305c-3.375-0.25-6.0977-2.6211-7.0547-5.6445-0.25-0.85547-0.35156-1.7617-0.30078-2.6211l1.5625-46.453c0.20312-4.4336 3.8789-7.9102 8.4141-7.7578 4.4336 0.10156 7.9102 3.8789 7.7578 8.3125l-1.1094 32.797c23.93-28.867 35.215-58.543 33.352-88.219-2.9219-48.418-39.449-80.91-39.801-81.316-3.3242-2.8711-3.6797-8.0117-0.70703-11.387 2.9727-3.3242 8.0117-3.6797 11.438-0.75391 1.7148 1.4102 41.867 37.434 45.242 92.348 2.0664 33-9.6719 65.547-34.711 96.68l23.629 2.168c4.4336 0.35156 7.707 4.332 7.3047 8.7656-0.44922 4.4375-4.332 7.7656-8.7656 7.3125z"></path>
  <path d="m221.75 299.59 46.25 4.2305c3.375 0.25 6.0977 2.6211 7.0547 5.6445 0.25 0.85547 0.35156 1.7617 0.30078 2.6211l-1.5625 46.453c-0.20312 4.4336-3.8789 7.9102-8.4141 7.7578-4.4336-0.10156-7.9102-3.8789-7.7578-8.3125l1.1094-32.797c-23.93 28.867-35.215 58.543-33.352 88.219 2.9219 48.418 39.449 80.91 39.801 81.316 3.3242 2.8711 3.6797 8.0117 0.70703 11.387-2.9727 3.3242-8.0117 3.6797-11.438 0.75391-1.7148-1.4102-41.867-37.434-45.242-92.348-2.0664-33 9.6719-65.547 34.711-96.68l-23.629-2.168c-4.4336-0.35156-7.707-4.332-7.3047-8.7656 0.45312-4.4414 4.332-7.7148 8.7656-7.3125z"></path>
 </g>

      </g>
     <g id="IconSvg_iconCarrier">
      <g xmlns="http://www.w3.org/2000/svg">
  <path d="m411.54 398.18c-69.477-31.586-86-102.88-89.578-125.65l171.95 0.25c-2.9727 20.605-15.164 80.559-59.098 111.34-2.9219 2.0156-3.7266 6.2461-1.6133 9.168 1.3086 1.8633 3.3242 2.8203 5.4414 2.8203 1.3086 0 2.6719-0.25 3.8789-1.2109 54.863-38.34 64.137-114.41 65.344-127.16 0.15234-0.80469 0.15234-1.3086 0.15234-1.6133l0.050781-20.102c0-3.7266-2.9219-6.6484-6.6484-6.6484l-186.81-0.30078c-3.7266 0-6.6484 2.9219-6.6484 6.6484l-0.050781 20.102c0 0.40234 0 0.90625 0.15234 1.3086 0.90625 11.035 11.387 103.58 98.043 143.08 75.219 34.16 86.402 91.594 87.965 110.79l-172.61-0.25c2.418-18.488 13.652-69.527 61.062-97.789 3.1758-1.8633 4.2812-5.9961 2.418-9.168-1.9648-3.0742-5.9961-4.1328-9.168-2.2656-64.137 38.34-68.113 111.59-68.266 115.42l-0.050781 21.262c0 3.5781 2.9219 6.6484 6.6484 6.6484l186.81 0.30078c3.7266 0 6.6484-3.0234 6.6484-6.6484l0.050781-20.859c0.14844-5.3906 0.55469-85.547-96.078-129.48zm-90.332-145.7 173.51 0.25 0.10156 6.8008-173.66-0.25zm173.11 289.44-173.51-0.25v-7.5586l173.51 0.25z"></path>
  <path d="m593.76 501.82-46.25-4.2305c-3.375-0.25-6.0977-2.6211-7.0547-5.6445-0.25-0.85547-0.35156-1.7617-0.30078-2.6211l1.5625-46.453c0.20312-4.4336 3.8789-7.9102 8.4141-7.7578 4.4336 0.10156 7.9102 3.8789 7.7578 8.3125l-1.1094 32.797c23.93-28.867 35.215-58.543 33.352-88.219-2.9219-48.418-39.449-80.91-39.801-81.316-3.3242-2.8711-3.6797-8.0117-0.70703-11.387 2.9727-3.3242 8.0117-3.6797 11.438-0.75391 1.7148 1.4102 41.867 37.434 45.242 92.348 2.0664 33-9.6719 65.547-34.711 96.68l23.629 2.168c4.4336 0.35156 7.707 4.332 7.3047 8.7656-0.44922 4.4375-4.332 7.7656-8.7656 7.3125z"></path>
  <path d="m221.75 299.59 46.25 4.2305c3.375 0.25 6.0977 2.6211 7.0547 5.6445 0.25 0.85547 0.35156 1.7617 0.30078 2.6211l-1.5625 46.453c-0.20312 4.4336-3.8789 7.9102-8.4141 7.7578-4.4336-0.10156-7.9102-3.8789-7.7578-8.3125l1.1094-32.797c-23.93 28.867-35.215 58.543-33.352 88.219 2.9219 48.418 39.449 80.91 39.801 81.316 3.3242 2.8711 3.6797 8.0117 0.70703 11.387-2.9727 3.3242-8.0117 3.6797-11.438 0.75391-1.7148-1.4102-41.867-37.434-45.242-92.348-2.0664-33 9.6719-65.547 34.711-96.68l-23.629-2.168c-4.4336-0.35156-7.707-4.332-7.3047-8.7656 0.45312-4.4414 4.332-7.7148 8.7656-7.3125z"></path>
 </g>

      </g>
      </svg>