<svg id="svg" fill="#d8473a" stroke="#d8473a" width="200" height="200" version="1.1" viewBox="144 144 512 512" xmlns="http://www.w3.org/2000/svg">
    <g id="IconSvg_bgCarrier" stroke-width="0"></g>
    <g id="IconSvg_tracerCarrier" stroke-linecap="round" stroke-linejoin="round" stroke="#CCCCCC" stroke-width="0">
      <path xmlns="http://www.w3.org/2000/svg" d="m348.89 452.48h-72.371c-5.7617-6.4453-14.137-10.496-23.469-10.496h-41.984c-17.391 0-31.488 14.098-31.488 31.488v83.969c0 17.391 14.098 31.488 31.488 31.488h41.984c9.332 0 17.707-4.0508 23.469-10.496h12.156c2.0781 0 4.1055 0.60938 5.8242 1.7617l48.336 32.223c7.8281 5.2148 17.012 7.9961 26.414 7.9961h12.375c6.6562 0 13.246-1.3945 19.332-4.1055l77.074-34.258c2.1719-0.96484 4.1758-2.1836 5.9844-3.6211h39.453c5.7617 6.4453 14.137 10.496 23.469 10.496h41.984c17.391 0 31.488-14.098 31.488-31.488v-83.969c0-17.391-14.098-31.488-31.488-31.488h-41.984c-9.332 0-17.707 4.0508-23.469 10.496h-40.59c-4.0625 0-8.0391-1.207-11.43-3.4648l-15.629-10.422c-6.957-4.625-15.121-7.1016-23.477-7.1016h-46.762c-14.18 0-27.414 7.0859-35.277 18.883zm-13.992 20.992h-50.359v83.969h4.1367c6.2227 0 12.301 1.8359 17.477 5.2891l48.336 32.223c4.3633 2.918 9.5039 4.4688 14.762 4.4688h12.375c3.7148 0 7.3984-0.77734 10.812-2.2969l77.074-34.25c2.4023-1.0703 3.957-3.7891 3.957-6.4219 0-2.3008-1.1875-4.4297-3.1289-5.6484l-69.809-43.633-23.824 17.875c-10.988 8.25-25.977 8.6602-37.406 1.0391l-0.011719-0.011719c-15.094-10.055-19.164-30.438-9.1094-45.52zm180.55 0h-32.57c-8.207 0-16.238-2.4336-23.07-6.9805l-15.641-10.434c-3.5-2.332-7.6172-3.5781-11.824-3.5781h-46.762c-7.1602 0-13.844 3.5781-17.812 9.5312l-20.133 30.188c-3.6211 5.4375-2.1523 12.793 3.2852 16.414l0.019531 0.011719c4.0195 2.6875 9.2891 2.5391 13.16-0.36719l29.43-22.074c3.3789-2.625 8.1758-3.0234 12.02-0.62109l75.906 47.441c8.0898 5.0508 13 13.918 13 23.449 0 0.11328 0 0.76562-0.007813 0.98438h21zm-283.39 10.492v20.992c0 5.793 4.7031 10.496 10.496 10.496 5.793 0 10.496-4.7031 10.496-10.496v-20.992c0-5.793-4.7031-10.492-10.496-10.492-5.793 0-10.496 4.6992-10.496 10.492zm314.88 0v20.992c0 5.793 4.7031 10.496 10.496 10.496 5.793 0 10.496-4.7031 10.496-10.496v-20.992c0-5.793-4.7031-10.496-10.496-10.496-5.793 0-10.496 4.7031-10.496 10.496zm-146.95-102.48c5.5742 4.9844 12.93 8.0195 20.992 8.0195 0 0 10.496 0.011719 10.496 0.019532 0 8.3438 3.3164 16.352 9.2148 22.25 5.8984 5.8984 13.906 9.2148 22.25 9.2148h0.042969c8.3438 0 16.352-3.3164 22.25-9.2148 5.8984-5.8984 9.2148-13.906 9.2148-22.25v-0.019532h10.496c8.3555 0 16.363-3.3164 22.262-9.2266 5.9102-5.8984 9.2266-13.906 9.2266-22.262v-10.496c8.3555 0 16.363-3.3164 22.262-9.2266 5.9102-5.8984 9.2266-13.906 9.2266-22.262s-3.3164-16.363-9.2227-22.262c-5.9023-5.9102-13.91-9.2266-22.266-9.2266v-10.496c0-17.395-14.094-31.488-31.488-31.488h-83.965c-8.0625 0-15.422 3.0312-20.992 8.0195-5.7656-5.1562-13.227-8.0195-20.992-8.0195h-20.992c-10.496 0-10.496 10.633-10.496 10.633v10.359c0 2.7812-1.1016 5.457-3.0742 7.4219-1.9648 1.9727-4.6406 3.0742-7.4219 3.0742s-5.4609-1.1016-7.4219-3.0742c-1.9727-1.9648-3.0742-4.6406-3.0742-7.4219v-10.359s0-10.633-10.496-10.633h-20.992c-8.3555 0-16.363 3.3164-22.262 9.2266-5.9102 5.8984-9.2266 13.906-9.2266 22.262v10.496h-0.019531c-8.3438 0-16.352 3.3164-22.25 9.2148-5.9023 5.8984-9.2188 13.906-9.2188 22.25v0.042969c0 8.3438 3.3164 16.352 9.2148 22.25 5.8984 5.9023 13.906 9.2188 22.25 9.2188 0.011718 0 0.023437 10.496 0.023437 10.496 0 17.391 14.098 31.488 31.488 31.488h83.969c8.0625 0 15.418-3.0352 20.992-8.0195zm-10.496-86.445v-20.992c0-2.7812-1.1016-5.457-3.0742-7.4219-1.9648-1.9727-4.6406-3.0742-7.4219-3.0742h-10.496v0.019531c0 8.3438-3.3164 16.352-9.2148 22.25-5.9023 5.9023-13.91 9.2188-22.254 9.2188h0.074219-0.074219c-8.2695 0-16.98-3.3398-22.766-9.2578-5.7852-5.9219-8.9336-13.918-8.7422-22.188 0-0.03125-10.496-0.042969-10.496-0.042969-2.7812 0-5.457 1.1016-7.4219 3.0742-1.9727 1.9648-3.0742 4.6406-3.0742 7.4219v20.992c0 5.6172-4.4102 10.203-9.9609 10.484h-11.043c-5.793 0.011718-10.484 4.7031-10.484 10.496v0.011719c0 2.7812 1.1016 5.457 3.0742 7.4219 1.9648 1.9727 4.6406 3.0742 7.4219 3.0742h10.496c5.793 0 10.496 4.7031 10.496 10.496v20.992c0 5.793 4.7031 10.496 10.496 10.496h83.969c5.793 0 10.496-4.7031 10.496-10.496v-20.992s0-10.496 10.633-10.496h10.359c2.7812 0 5.457-1.1016 7.4219-3.0742 1.9688-1.9648 3.0742-4.6406 3.0742-7.4219s-1.1055-5.457-3.0781-7.4219c-1.9609-1.9727-4.6367-3.0742-7.418-3.0742h-10.496c-5.793 0-10.496-4.7031-10.496-10.496zm57.172-69.336 10.496-5.2461c5.1836-2.5859 7.2812-8.9023 4.6914-14.078-2.582-5.1875-8.9023-7.2852-14.078-4.6914l-10.496 5.2461c-5.1836 2.582-7.2852 8.9023-4.6914 14.074 2.582 5.1836 8.9023 7.2852 14.074 4.6914zm-83.969-18.766-10.496-5.2461c-5.1758-2.5977-11.492-0.5-14.074 4.6875-2.5938 5.1758-0.49609 11.492 4.6914 14.074l10.496 5.2461c5.1758 2.5938 11.492 0.49219 14.074-4.6914 2.5938-5.1758 0.49219-11.492-4.6914-14.074zm47.789 4.1328v-20.992c0-5.793-4.7031-10.496-10.496-10.496-5.7969 0-10.496 4.7031-10.496 10.496v20.992c0 5.793 4.7031 10.496 10.496 10.496s10.496-4.7031 10.496-10.496z" fill-rule="evenodd"></path>

      </g>
     <g id="IconSvg_iconCarrier">
      <path xmlns="http://www.w3.org/2000/svg" d="m348.89 452.48h-72.371c-5.7617-6.4453-14.137-10.496-23.469-10.496h-41.984c-17.391 0-31.488 14.098-31.488 31.488v83.969c0 17.391 14.098 31.488 31.488 31.488h41.984c9.332 0 17.707-4.0508 23.469-10.496h12.156c2.0781 0 4.1055 0.60938 5.8242 1.7617l48.336 32.223c7.8281 5.2148 17.012 7.9961 26.414 7.9961h12.375c6.6562 0 13.246-1.3945 19.332-4.1055l77.074-34.258c2.1719-0.96484 4.1758-2.1836 5.9844-3.6211h39.453c5.7617 6.4453 14.137 10.496 23.469 10.496h41.984c17.391 0 31.488-14.098 31.488-31.488v-83.969c0-17.391-14.098-31.488-31.488-31.488h-41.984c-9.332 0-17.707 4.0508-23.469 10.496h-40.59c-4.0625 0-8.0391-1.207-11.43-3.4648l-15.629-10.422c-6.957-4.625-15.121-7.1016-23.477-7.1016h-46.762c-14.18 0-27.414 7.0859-35.277 18.883zm-13.992 20.992h-50.359v83.969h4.1367c6.2227 0 12.301 1.8359 17.477 5.2891l48.336 32.223c4.3633 2.918 9.5039 4.4688 14.762 4.4688h12.375c3.7148 0 7.3984-0.77734 10.812-2.2969l77.074-34.25c2.4023-1.0703 3.957-3.7891 3.957-6.4219 0-2.3008-1.1875-4.4297-3.1289-5.6484l-69.809-43.633-23.824 17.875c-10.988 8.25-25.977 8.6602-37.406 1.0391l-0.011719-0.011719c-15.094-10.055-19.164-30.438-9.1094-45.52zm180.55 0h-32.57c-8.207 0-16.238-2.4336-23.07-6.9805l-15.641-10.434c-3.5-2.332-7.6172-3.5781-11.824-3.5781h-46.762c-7.1602 0-13.844 3.5781-17.812 9.5312l-20.133 30.188c-3.6211 5.4375-2.1523 12.793 3.2852 16.414l0.019531 0.011719c4.0195 2.6875 9.2891 2.5391 13.16-0.36719l29.43-22.074c3.3789-2.625 8.1758-3.0234 12.02-0.62109l75.906 47.441c8.0898 5.0508 13 13.918 13 23.449 0 0.11328 0 0.76562-0.007813 0.98438h21zm-283.39 10.492v20.992c0 5.793 4.7031 10.496 10.496 10.496 5.793 0 10.496-4.7031 10.496-10.496v-20.992c0-5.793-4.7031-10.492-10.496-10.492-5.793 0-10.496 4.6992-10.496 10.492zm314.88 0v20.992c0 5.793 4.7031 10.496 10.496 10.496 5.793 0 10.496-4.7031 10.496-10.496v-20.992c0-5.793-4.7031-10.496-10.496-10.496-5.793 0-10.496 4.7031-10.496 10.496zm-146.95-102.48c5.5742 4.9844 12.93 8.0195 20.992 8.0195 0 0 10.496 0.011719 10.496 0.019532 0 8.3438 3.3164 16.352 9.2148 22.25 5.8984 5.8984 13.906 9.2148 22.25 9.2148h0.042969c8.3438 0 16.352-3.3164 22.25-9.2148 5.8984-5.8984 9.2148-13.906 9.2148-22.25v-0.019532h10.496c8.3555 0 16.363-3.3164 22.262-9.2266 5.9102-5.8984 9.2266-13.906 9.2266-22.262v-10.496c8.3555 0 16.363-3.3164 22.262-9.2266 5.9102-5.8984 9.2266-13.906 9.2266-22.262s-3.3164-16.363-9.2227-22.262c-5.9023-5.9102-13.91-9.2266-22.266-9.2266v-10.496c0-17.395-14.094-31.488-31.488-31.488h-83.965c-8.0625 0-15.422 3.0312-20.992 8.0195-5.7656-5.1562-13.227-8.0195-20.992-8.0195h-20.992c-10.496 0-10.496 10.633-10.496 10.633v10.359c0 2.7812-1.1016 5.457-3.0742 7.4219-1.9648 1.9727-4.6406 3.0742-7.4219 3.0742s-5.4609-1.1016-7.4219-3.0742c-1.9727-1.9648-3.0742-4.6406-3.0742-7.4219v-10.359s0-10.633-10.496-10.633h-20.992c-8.3555 0-16.363 3.3164-22.262 9.2266-5.9102 5.8984-9.2266 13.906-9.2266 22.262v10.496h-0.019531c-8.3438 0-16.352 3.3164-22.25 9.2148-5.9023 5.8984-9.2188 13.906-9.2188 22.25v0.042969c0 8.3438 3.3164 16.352 9.2148 22.25 5.8984 5.9023 13.906 9.2188 22.25 9.2188 0.011718 0 0.023437 10.496 0.023437 10.496 0 17.391 14.098 31.488 31.488 31.488h83.969c8.0625 0 15.418-3.0352 20.992-8.0195zm-10.496-86.445v-20.992c0-2.7812-1.1016-5.457-3.0742-7.4219-1.9648-1.9727-4.6406-3.0742-7.4219-3.0742h-10.496v0.019531c0 8.3438-3.3164 16.352-9.2148 22.25-5.9023 5.9023-13.91 9.2188-22.254 9.2188h0.074219-0.074219c-8.2695 0-16.98-3.3398-22.766-9.2578-5.7852-5.9219-8.9336-13.918-8.7422-22.188 0-0.03125-10.496-0.042969-10.496-0.042969-2.7812 0-5.457 1.1016-7.4219 3.0742-1.9727 1.9648-3.0742 4.6406-3.0742 7.4219v20.992c0 5.6172-4.4102 10.203-9.9609 10.484h-11.043c-5.793 0.011718-10.484 4.7031-10.484 10.496v0.011719c0 2.7812 1.1016 5.457 3.0742 7.4219 1.9648 1.9727 4.6406 3.0742 7.4219 3.0742h10.496c5.793 0 10.496 4.7031 10.496 10.496v20.992c0 5.793 4.7031 10.496 10.496 10.496h83.969c5.793 0 10.496-4.7031 10.496-10.496v-20.992s0-10.496 10.633-10.496h10.359c2.7812 0 5.457-1.1016 7.4219-3.0742 1.9688-1.9648 3.0742-4.6406 3.0742-7.4219s-1.1055-5.457-3.0781-7.4219c-1.9609-1.9727-4.6367-3.0742-7.418-3.0742h-10.496c-5.793 0-10.496-4.7031-10.496-10.496zm57.172-69.336 10.496-5.2461c5.1836-2.5859 7.2812-8.9023 4.6914-14.078-2.582-5.1875-8.9023-7.2852-14.078-4.6914l-10.496 5.2461c-5.1836 2.582-7.2852 8.9023-4.6914 14.074 2.582 5.1836 8.9023 7.2852 14.074 4.6914zm-83.969-18.766-10.496-5.2461c-5.1758-2.5977-11.492-0.5-14.074 4.6875-2.5938 5.1758-0.49609 11.492 4.6914 14.074l10.496 5.2461c5.1758 2.5938 11.492 0.49219 14.074-4.6914 2.5938-5.1758 0.49219-11.492-4.6914-14.074zm47.789 4.1328v-20.992c0-5.793-4.7031-10.496-10.496-10.496-5.7969 0-10.496 4.7031-10.496 10.496v20.992c0 5.793 4.7031 10.496 10.496 10.496s10.496-4.7031 10.496-10.496z" fill-rule="evenodd"></path>

      </g>
      </svg>